#!OML:ASF E:\Style4\Style4.ASF
:FULLY-SPECIFIED
:DEGREES
1049
root 0.685119 17.1424 -2.67245 9.12141 -1.05849 7.45895
lowerback 21.4845 4.64622 3.88875
upperback 13.6154 6.61733 2.08425
thorax 3.13542 3.49426 -1.12672
lowerneck 4.33807 -16.9401 -5.40815
upperneck 24.4445 -23.525 5.45788
head 8.29225 -10.9922 1.11849
rclavicle -9.54166e-015 9.54166e-015
rhumerus 68.4313 18.6043 -406.063
rradius 37.6062
rwrist 342.662
rhand 39.8333 4.78247
rfingers 7.12502
rthumb 62.2568 -6.38793
lclavicle -9.54166e-015 9.54166e-015
lhumerus 68.6327 31.913 23.9016
lradius 119.164
lwrist 52.0912
lhand 13.5057 28.8886
lfingers 7.12502
lthumb 38.4432 54.5658
rfemur -41.4451 -5.51929 9.39919
rtibia 50.3838
rfoot -15.5621 -16.0028
rtoes -11.617
lfemur -37.3044 4.43283 -30.3935
ltibia 43.1342
lfoot -15.4228 7.63045
ltoes -12.1601
1050
root 0.705347 17.1722 -2.64742 9.00872 -1.48661 7.46512
lowerback 21.2164 4.66287 3.71331
upperback 13.5101 6.6002 2.26156
thorax 3.10186 3.46188 -0.82621
lowerneck 4.34161 -16.8626 -5.48404
upperneck 24.2856 -23.3623 5.16294
head 8.19595 -10.9534 1.06181
rclavicle 1.1291e-013 0
rhumerus 68.6522 18.4733 -406.189
rradius 38.4915
rwrist 339.286
rhand 39.2502 4.176
rfingers 7.12502
rthumb 61.7708 -7.6004
lclavicle 1.1291e-013 0
lhumerus 68.4936 32.1093 24.0301
lradius 119.175
lwrist 51.8881
lhand 13.4175 29.1586
lfingers 7.12502
lthumb 38.36 54.859
rfemur -41.042 -5.19442 9.27261
rtibia 49.8545
rfoot -15.3974 -15.9036
rtoes -11.6296
lfemur -36.7879 4.61251 -30.454
ltibia 42.6109
lfoot -15.3629 7.88224
ltoes -12.2399
1051
root 0.724069 17.1965 -2.62537 8.98294 -1.88706 7.45124
lowerback 20.9768 4.63803 3.77934
upperback 13.3624 6.57155 2.29776
thorax 3.05602 3.44542 -0.809173
lowerneck 4.28872 -16.7985 -5.46462
upperneck 24.1247 -23.2337 4.93832
head 8.10877 -10.917 1.00656
rclavicle -5.24792e-014 -2.8625e-014
rhumerus 68.8094 18.2364 -406.809
rradius 39.1245
rwrist 336.162
rhand 38.3091 3.95983
rfingers 7.12502
rthumb 60.9793 -8.74964
lclavicle -5.24792e-014 -2.8625e-014
lhumerus 68.6203 32.2458 24.0899
lradius 119.034
lwrist 51.7067
lhand 13.3507 29.2705
lfingers 7.12502
lthumb 38.297 54.9883
rfemur -40.7463 -4.9093 9.18814
rtibia 49.3237
rfoot -15.2169 -15.8024
rtoes -11.8089
lfemur -36.3969 4.72646 -30.4812
ltibia 42.0991
lfoot -15.308 8.1174
ltoes -12.0767
1052
root 0.744057 17.2238 -2.60307 8.9524 -2.31433 7.45001
lowerback 21.3486 5.01501 5.10753
upperback 13.167 7.29016 1.57929
thorax 2.98086 3.91786 -2.44856
lowerneck 3.43061 -17.5165 -3.15674
upperneck 24.0134 -24.2346 4.91758
head 7.98821 -11.1958 0.57845
rclavicle -6.67916e-014 -6.36111e-015
rhumerus 67.4611 15.8364 -409.197
rradius 39.3464
rwrist 333.776
rhand 37.7551 4.09845
rfingers 7.12502
rthumb 60.5096 -9.13548
lclavicle -6.67916e-014 -6.36111e-015
lhumerus 71.5882 31.6646 25.3068
lradius 119.019
lwrist 51.7447
lhand 13.4757 29.1482
lfingers 7.12502
lthumb 38.4149 54.8333
rfemur -40.4413 -4.61296 9.08374
rtibia 48.7836
rfoot -15.0863 -15.6327
rtoes -11.9552
lfemur -35.9831 4.85914 -30.5287
ltibia 41.5854
lfoot -15.299 8.40273
ltoes -12.5266
1053
root 0.76558 17.2518 -2.57969 8.88563 -2.78101 7.49628
lowerback 20.7086 4.53382 4.52619
upperback 13.009 6.5504 1.84758
thorax 2.94572 3.49175 -1.68655
lowerneck 3.94764 -16.7363 -4.67766
upperneck 24.0099 -23.1501 4.76974
head 8.00252 -10.8355 0.848045
rclavicle -5.56597e-014 1.11319e-014
rhumerus 68.5728 17.1642 -409.693
rradius 39.8983
rwrist 330.553
rhand 37.1785 4.11093
rfingers 7.12502
rthumb 60.0179 -9.65051
lclavicle -5.56597e-014 1.11319e-014
lhumerus 69.3094 32.4098 24.1702
lradius 118.965
lwrist 51.9578
lhand 13.6952 28.8975
lfingers 7.12502
lthumb 38.622 54.5247
rfemur -40.1097 -4.3087 8.91797
rtibia 48.2407
rfoot -14.9651 -15.4709
rtoes -12.0427
lfemur -35.5219 5.00231 -30.6309
ltibia 41.0758
lfoot -15.3165 8.66156
ltoes -12.5195
1054
root 0.785631 17.2768 -2.55858 8.84467 -3.23998 7.52685
lowerback 20.6966 4.54939 4.86385
upperback 12.8139 6.62706 1.66624
thorax 2.80697 3.55093 -2.08572
lowerneck 3.51139 -16.7729 -4.39786
upperneck 24.3166 -23.2441 4.74873
head 8.14948 -10.837 0.747124
rclavicle -6.36111e-015 6.36111e-015
rhumerus 68.3993 16.3994 -411.205
rradius 40.0378
rwrist 327.915
rhand 36.818 4.47382
rfingers 7.12502
rthumb 59.7092 -9.60816
lclavicle -6.36111e-015 6.36111e-015
lhumerus 69.7147 32.4596 24.2983
lradius 119.026
lwrist 51.9733
lhand 13.684 28.5468
lfingers 7.12502
lthumb 38.6115 54.177
rfemur -39.8123 -4.008 8.78198
rtibia 47.6819
rfoot -14.7622 -15.3524
rtoes -12.1712
lfemur -35.113 5.12065 -30.7114
ltibia 40.5696
lfoot -15.3372 8.9099
ltoes -12.0716
1055
root 0.805736 17.3024 -2.53808 8.80318 -3.75377 7.58013
lowerback 20.6547 4.6307 4.92813
upperback 12.6831 6.74064 1.6571
thorax 2.69988 3.60516 -2.15382
lowerneck 2.82822 -16.8417 -4.26151
upperneck 24.7815 -23.3717 4.59607
head 8.3956 -10.859 0.589171
rclavicle 1.59028e-015 4.29375e-014
rhumerus 68.4179 15.6628 -412.56
rradius 40.076
rwrist 325.416
rhand 36.7693 4.83311
rfingers 7.12502
rthumb 59.6674 -9.29163
lclavicle 1.59028e-015 4.29375e-014
lhumerus 69.9728 32.5825 24.5325
lradius 119.07
lwrist 51.9428
lhand 13.5662 28.394
lfingers 7.12502
lthumb 38.5004 54.0553
rfemur -39.5395 -3.70039 8.6207
rtibia 47.111
rfoot -14.4846 -15.2243
rtoes -12.3509
lfemur -34.7336 5.26712 -30.8178
ltibia 40.0693
lfoot -15.2956 9.20942
ltoes -11.9967
1056
root 0.826258 17.3295 -2.51694 8.76312 -4.26736 7.5428
lowerback 20.5614 4.68729 5.08634
upperback 12.4459 6.84006 1.66001
thorax 2.51017 3.65281 -2.261
lowerneck 2.96029 -16.864 -4.10151
upperneck 24.6579 -23.3863 4.49857
head 8.29918 -10.8727 0.559541
rclavicle -1.43125e-014 -2.38542e-014
rhumerus 68.2465 15.1424 -413.89
rradius 40.1753
rwrist 322.523
rhand 36.0111 4.92341
rfingers 7.12502
rthumb 59.0145 -9.85147
lclavicle -1.43125e-014 -2.38542e-014
lhumerus 70.1252 32.4736 24.6978
lradius 119.084
lwrist 51.9642
lhand 13.4825 28.401
lfingers 7.12502
lthumb 38.4214 54.0844
rfemur -39.2649 -3.37378 8.56871
rtibia 46.5453
rfoot -14.2258 -15.1005
rtoes -12.7152
lfemur -34.3502 5.43079 -30.8231
ltibia 39.5808
lfoot -15.2073 9.52353
ltoes -12.3596
1057
root 0.846843 17.3565 -2.49747 8.72132 -4.70817 7.50704
lowerback 20.5118 4.74 5.37253
upperback 12.0474 6.96606 1.59592
thorax 2.14979 3.71582 -2.52808
lowerneck 3.74774 -16.8603 -3.92314
upperneck 24.3165 -23.366 4.56393
head 8.03701 -10.8834 0.652335
rclavicle -2.8625e-014 -4.77083e-015
rhumerus 67.6891 14.5758 -415.256
rradius 40.3341
rwrist 318.998
rhand 34.7953 4.80026
rfingers 7.12502
rthumb 57.9587 -10.9582
lclavicle -2.8625e-014 -4.77083e-015
lhumerus 70.4161 32.0202 24.8665
lradius 119.115
lwrist 52.0893
lhand 13.4792 28.4557
lfingers 7.12502
lthumb 38.4183 54.1399
rfemur -38.9733 -3.13336 8.52819
rtibia 45.992
rfoot -14.0166 -14.9214
rtoes -12.9303
lfemur -33.9396 5.52861 -30.8193
ltibia 39.0837
lfoot -15.2094 9.79768
ltoes -12.2441
1058
root 0.867398 17.379 -2.47808 8.71295 -5.16034 7.61159
lowerback 20.3899 4.79346 5.53524
upperback 11.6871 7.06817 1.48249
thorax 1.85825 3.76358 -2.76641
lowerneck 4.33989 -16.8468 -3.77943
upperneck 24.1845 -23.3547 4.65466
head 7.88892 -10.8836 0.727173
rclavicle 1.27222e-013 -3.02153e-014
rhumerus 67.0548 13.9525 -416.927
rradius 40.4526
rwrist 315.734
rhand 33.7995 4.8939
rfingers 7.12502
rthumb 57.0866 -11.6198
lclavicle 1.27222e-013 -3.02153e-014
lhumerus 70.7144 31.6425 25.0072
lradius 119.115
lwrist 52.2247
lhand 13.5532 28.402
lfingers 7.12502
lthumb 38.4881 54.0667
rfemur -38.7356 -2.95502 8.32597
rtibia 45.4541
rfoot -13.8752 -14.6517
rtoes -12.8287
lfemur -33.5872 5.66371 -30.999
ltibia 38.5962
lfoot -15.2375 10.0336
ltoes -11.8017
1059
root 0.887471 17.4002 -2.45673 8.67816 -5.68657 7.71343
lowerback 20.1243 4.73603 5.43002
upperback 11.6056 6.96349 1.56053
thorax 1.86581 3.69958 -2.59151
lowerneck 4.32539 -16.7154 -4.08413
upperneck 24.1488 -23.1909 4.66482
head 7.90674 -10.8333 0.7777
rclavicle 4.45278e-014 5.40694e-014
rhumerus 67.0179 13.7282 -418.528
rradius 40.5602
rwrist 313.078
rhand 32.871 5.08403
rfingers 7.12502
rthumb 56.2679 -12.096
lclavicle 4.45278e-014 5.40694e-014
lhumerus 70.422 31.8469 24.9432
lradius 119.053
lwrist 52.253
lhand 13.481 28.3129
lfingers 7.12502
lthumb 38.4199 53.9967
rfemur -38.5023 -2.7181 8.12256
rtibia 44.9206
rfoot -13.6704 -14.3794
rtoes -13.0949
lfemur -33.2133 5.82191 -31.167
ltibia 38.12
lfoot -15.3293 10.3429
ltoes -11.7604
1060
root 0.908322 17.4233 -2.43648 8.63691 -6.19847 7.63912
lowerback 19.863 4.57186 5.31135
upperback 11.7197 6.71029 1.83763
thorax 2.04831 3.56026 -2.16471
lowerneck 3.66674 -16.5038 -4.67315
upperneck 24.2756 -22.9144 4.55037
head 8.09673 -10.7379 0.765393
rclavicle -2.38542e-014 0
rhumerus 67.6567 13.78 -419.744
rradius 40.5402
rwrist 310.602
rhand 31.6132 5.32073
rfingers 7.12502
rthumb 55.1511 -12.7081
lclavicle -2.38542e-014 0
lhumerus 69.7505 32.5104 24.7997
lradius 118.978
lwrist 52.2595
lhand 13.1943 28.2447
lfingers 7.12502
lthumb 38.1493 54.0032
rfemur -38.2491 -2.43047 8.11681
rtibia 44.3814
rfoot -13.4143 -14.232
rtoes -13.2671
lfemur -32.8476 5.98512 -31.1393
ltibia 37.6697
lfoot -15.3887 10.6482
ltoes -11.9106
1061
root 0.928921 17.4445 -2.41803 8.61438 -6.67327 7.60996
lowerback 19.7192 4.50966 5.16822
upperback 11.7009 6.59808 2.0911
thorax 2.03928 3.48378 -1.79266
lowerneck 3.10045 -16.4114 -4.79704
upperneck 24.4452 -22.7387 4.15493
head 8.20311 -10.676 0.617604
rclavicle -7.95139e-015 2.06736e-014
rhumerus 67.9733 13.6592 -421.143
rradius 40.4062
rwrist 308.369
rhand 30.1914 5.64591
rfingers 7.12502
rthumb 53.8789 -13.2736
lclavicle -7.95139e-015 2.06736e-014
lhumerus 69.4042 32.8677 24.8733
lradius 118.905
lwrist 52.2338
lhand 13.152 28.1534
lfingers 7.12502
lthumb 38.1094 53.9228
rfemur -38.0163 -2.21567 8.07272
rtibia 43.8472
rfoot -13.1464 -14.0938
rtoes -13.1726
lfemur -32.5311 6.11416 -31.1564
ltibia 37.2475
lfoot -15.4079 10.8737
ltoes -11.4604
1062
root 0.947865 17.4652 -2.40057 8.56947 -7.16609 7.58569
lowerback 19.5975 4.5355 4.88317
upperback 11.6022 6.58428 2.44032
thorax 1.90862 3.44182 -1.2669
lowerneck 2.92372 -16.3607 -4.82906
upperneck 24.4359 -22.5784 3.65353
head 8.16091 -10.64 0.471849
rclavicle 2.8625e-014 -4.92986e-014
rhumerus 68.0016 13.5283 -422.6
rradius 40.2575
rwrist 306.186
rhand 29.0422 5.91017
rfingers 7.12502
rthumb 52.8438 -13.6806
lclavicle 2.8625e-014 -4.92986e-014
lhumerus 69.0678 32.9932 25.1214
lradius 118.855
lwrist 52.1691
lhand 13.2937 28.1849
lfingers 7.12502
lthumb 38.2432 53.9176
rfemur -37.7723 -1.97502 8.02404
rtibia 43.3366
rfoot -12.8835 -13.9505
rtoes -13.2524
lfemur -32.206 6.26209 -31.1678
ltibia 36.848
lfoot -15.4932 11.0686
ltoes -10.8397
